<svg width="164" height="88" viewBox="0 0 164 88" fill="none" xmlns="http://www.w3.org/2000/svg">
<path d="M152.536 46C154.679 49.7128 154.679 54.2872 152.536 58L120.464 113.55C118.321 117.263 114.359 119.55 110.072 119.55L45.9282 119.55C41.641 119.55 37.6795 117.263 35.5359 113.55L3.4641 58C1.3205 54.2872 1.3205 49.7128 3.4641 46L35.5359 -9.54998C37.6795 -13.2628 41.641 -15.55 45.9282 -15.55L110.072 -15.55C114.359 -15.55 118.321 -13.2628 120.464 -9.54998L152.536 46Z" fill="#F2F4F7"/>
<path d="M65.8501 54.9566L58.1129 57.7914L65.8501 60.6002V63.5325L54.7969 59.3258V56.309L65.8501 52.1088V54.9566Z" fill="#0F2B46"/>
<path d="M80.7329 46.3677H83.9838L76.3181 68.2399H73.0672L80.7329 46.3677Z" fill="#0F2B46"/>
<path d="M102.007 56.2831V59.3L90.9539 63.5067V60.6003L98.691 57.7915L90.9539 54.9567V52.0829L102.007 56.2831Z" fill="#0F2B46"/>
<path d="M111.077 13H45.2198C42.9719 13 41.1496 14.8223 41.1496 17.0702V88.0055C41.1496 90.2534 42.9719 92.0756 45.2198 92.0756H111.077C113.325 92.0756 115.147 90.2534 115.147 88.0055V17.0702C115.147 14.8223 113.325 13 111.077 13Z" stroke="black" stroke-width="2" stroke-miterlimit="10"/>
<path d="M41.0001 26.5109H114.803" stroke="black" stroke-miterlimit="10"/>
<path d="M49.4005 22.8763C51.0488 22.8763 52.3849 21.5402 52.3849 19.892C52.3849 18.2437 51.0488 16.9076 49.4005 16.9076C47.7523 16.9076 46.4162 18.2437 46.4162 19.892C46.4162 21.5402 47.7523 22.8763 49.4005 22.8763Z" fill="#F46F52"/>
<path d="M58.8283 22.8763C60.4765 22.8763 61.8126 21.5402 61.8126 19.892C61.8126 18.2437 60.4765 16.9076 58.8283 16.9076C57.1801 16.9076 55.8439 18.2437 55.8439 19.892C55.8439 21.5402 57.1801 22.8763 58.8283 22.8763Z" fill="#BDD9BF"/>
<path d="M68.256 22.8763C69.9042 22.8763 71.2404 21.5402 71.2404 19.892C71.2404 18.2437 69.9042 16.9076 68.256 16.9076C66.6078 16.9076 65.2717 18.2437 65.2717 19.892C65.2717 21.5402 66.6078 22.8763 68.256 22.8763Z" fill="#BDD9BF"/>
<path d="M161.979 28L155.039 40.0215C154.503 40.9497 153.512 41.5215 152.441 41.5215L138.559 41.5215C137.488 41.5215 136.497 40.9497 135.961 40.0215L129.021 28C128.485 27.0718 128.485 25.9282 129.021 25L135.961 12.9785C136.497 12.0503 137.488 11.4785 138.559 11.4785L152.441 11.4785C153.512 11.4785 154.503 12.0503 155.039 12.9785L161.979 25C162.515 25.9282 162.515 27.0718 161.979 28Z" stroke="#FFC857" stroke-width="2"/>
<path d="M43.86 33H18C16.8954 33 16 33.8954 16 35V68.3C16 69.4046 16.8954 70.3 18 70.3H43.86C44.9646 70.3 45.86 69.4046 45.86 68.3V35C45.86 33.8954 44.9646 33 43.86 33Z" fill="#FFC857"/>
<path d="M20.92 43.78H40.51" stroke="black" stroke-miterlimit="10"/>
<path d="M20.92 49.4H40.51" stroke="black" stroke-miterlimit="10"/>
<path d="M20.92 55.02H40.51" stroke="black" stroke-miterlimit="10"/>
<path d="M20.92 60.64H34.51" stroke="black" stroke-miterlimit="10"/>
</svg>
